<svg xmlns="http://www.w3.org/2000/svg" viewBox="0 0 32 32" fill="none">
  <rect width="32" height="32" rx="8" fill="#25D366"/>
  <path d="M16 5C10.477 5 6 9.477 6 15c0 2.09.64 4.03 1.737 5.637L6 27l6.59-1.716A10 10 0 0016 26c5.523 0 10-4.477 10-10S21.523 5 16 5z" fill="white"/>
  <path d="M21 18.5c-.3.85-1.5 1.55-2.4 1.75-.65.13-1.5.23-4.35-1.86-2.73-2.02-4.3-5.06-4.43-5.3-.12-.22-.95-1.27-.95-2.43 0-1.16.58-1.72.8-1.96.22-.24.48-.3.65-.3h.47c.15 0 .35-.06.55.42.2.5.7 1.73.76 1.85.06.13.1.28.02.45-.08.17-.12.28-.24.43l-.36.43c-.12.13-.24.27-.1.52.14.25.63 1.03 1.35 1.67.93.82 1.72 1.07 1.96 1.19.24.12.38.1.52-.06.14-.16.6-.7.76-.94.16-.24.32-.2.54-.12.22.08 1.4.66 1.64.78.24.12.4.18.46.28.06.1.06.58-.24 1.43z" fill="#25D366"/>
</svg>
